<svg viewBox="-500 -500 1000 1000" id="grid">
  <line x1="-500" x2="500" y1="-500" y2="-500" />
  <line x1="-500" x2="500" y1="-450" y2="-450" />
  <line x1="-500" x2="500" y1="-400" y2="-400" />
  <line x1="-500" x2="500" y1="-350" y2="-350" />
  <line x1="-500" x2="500" y1="-300" y2="-300" />
  <line x1="-500" x2="500" y1="-250" y2="-250" />
  <line x1="-500" x2="500" y1="-200" y2="-200" />
  <line x1="-500" x2="500" y1="-150" y2="-150" />
  <line x1="-500" x2="500" y1="-100" y2="-100" />
  <line x1="-500" x2="500" y1="-50" y2="-50" />
  <line x1="-500" x2="500" y1="0" y2="0" />
  <line x1="-500" x2="500" y1="50" y2="50" />
  <line x1="-500" x2="500" y1="100" y2="100" />
  <line x1="-500" x2="500" y1="150" y2="150" />
  <line x1="-500" x2="500" y1="200" y2="200" />
  <line x1="-500" x2="500" y1="250" y2="250" />
  <line x1="-500" x2="500" y1="300" y2="300" />
  <line x1="-500" x2="500" y1="350" y2="350" />
  <line x1="-500" x2="500" y1="400" y2="400" />
  <line x1="-500" x2="500" y1="450" y2="450" />
  <line x1="-500" x2="500" y1="500" y2="500" />

  <line y1="-500" y2="500" x1="-500" x2="-500" />
  <line y1="-500" y2="500" x1="-450" x2="-450" />
  <line y1="-500" y2="500" x1="-400" x2="-400" />
  <line y1="-500" y2="500" x1="-350" x2="-350" />
  <line y1="-500" y2="500" x1="-300" x2="-300" />
  <line y1="-500" y2="500" x1="-250" x2="-250" />
  <line y1="-500" y2="500" x1="-200" x2="-200" />
  <line y1="-500" y2="500" x1="-150" x2="-150" />
  <line y1="-500" y2="500" x1="-100" x2="-100" />
  <line y1="-500" y2="500" x1="-50" x2="-50" />
  <line y1="-500" y2="500" x1="0" x2="0" />
  <line y1="-500" y2="500" x1="50" x2="50" />
  <line y1="-500" y2="500" x1="100" x2="100" />
  <line y1="-500" y2="500" x1="150" x2="150" />
  <line y1="-500" y2="500" x1="200" x2="200" />
  <line y1="-500" y2="500" x1="250" x2="250" />
  <line y1="-500" y2="500" x1="300" x2="300" />
  <line y1="-500" y2="500" x1="350" x2="350" />
  <line y1="-500" y2="500" x1="400" x2="400" />
  <line y1="-500" y2="500" x1="450" x2="450" />
  <line y1="-500" y2="500" x1="500" x2="500" />
</svg>
